# xmcd
# 
# Track frame offsets:
#     150
#     24949
#     47732
# 
# Disc length: 963
# 
# Revision: 2
# Processed by: cddbd v1.5.2PL0 Copyright (c) Steve Scherf et al.
# Submitted via: fre:ac v1.0.17
# 
DISCID=1903c103
DTITLE=長渕剛 - Hitotsu
DYEAR=2012
DGENRE=JPop
TTITLE0=Hitotsu
TTITLE1=Stay Dream 2012
TTITLE2=Hitotsu -KARAOKE-
EXTD=
EXTT0=
EXTT1=
EXTT2=
PLAYORDER=
